<svg width="49" height="48" viewBox="0 0 49 48" fill="none" xmlns="http://www.w3.org/2000/svg">
<path d="M17.796 48L16.8209 40.32C16.2927 40.12 15.7954 39.88 15.329 39.6C14.8625 39.32 14.405 39.02 13.9565 38.7L6.70398 41.7L0 30.3L6.27736 25.62C6.23673 25.34 6.21642 25.0704 6.21642 24.8112V23.1912C6.21642 22.9304 6.23673 22.66 6.27736 22.38L0 17.7L6.70398 6.3L13.9565 9.3C14.4034 8.98 14.8706 8.68 15.3582 8.4C15.8458 8.12 16.3333 7.88 16.8209 7.68L17.796 0H31.204L32.1791 7.68C32.7073 7.88 33.2054 8.12 33.6735 8.4C34.1415 8.68 34.5982 8.98 35.0435 9.3L42.296 6.3L49 17.7L42.7226 22.38C42.7633 22.66 42.7836 22.9304 42.7836 23.1912V24.8088C42.7836 25.0696 42.743 25.34 42.6617 25.62L48.9391 30.3L42.2351 41.7L35.0435 38.7C34.5966 39.02 34.1294 39.32 33.6418 39.6C33.1542 39.88 32.6667 40.12 32.1791 40.32L31.204 48H17.796ZM24.6219 32.4C26.9784 32.4 28.9896 31.58 30.6555 29.94C32.3213 28.3 33.1542 26.32 33.1542 24C33.1542 21.68 32.3213 19.7 30.6555 18.06C28.9896 16.42 26.9784 15.6 24.6219 15.6C22.2247 15.6 20.203 16.42 18.5566 18.06C16.9103 19.7 16.0879 21.68 16.0896 24C16.0896 26.32 16.9127 28.3 18.5591 29.94C20.2054 31.58 22.2263 32.4 24.6219 32.4Z" fill="white"/>
</svg>
