<svg width="48" height="48" viewBox="0 0 48 48" fill="none" xmlns="http://www.w3.org/2000/svg">
<path d="M45 9.75H3C2.40326 9.75 1.83097 9.98705 1.40901 10.409C0.987053 10.831 0.75 11.4033 0.75 12V36C0.75 36.5967 0.987053 37.169 1.40901 37.591C1.83097 38.0129 2.40326 38.25 3 38.25H45C45.5967 38.25 46.169 38.0129 46.591 37.591C47.0129 37.169 47.25 36.5967 47.25 36V12C47.25 11.4033 47.0129 10.831 46.591 10.409C46.169 9.98705 45.5967 9.75 45 9.75ZM33.9769 33.75H14.0231C13.5779 31.5904 12.5097 29.6086 10.9506 28.0494C9.39141 26.4903 7.40958 25.4221 5.25 24.9769V23.0231C7.40958 22.5779 9.39141 21.5097 10.9506 19.9506C12.5097 18.3914 13.5779 16.4096 14.0231 14.25H33.9769C34.4221 16.4096 35.4903 18.3914 37.0494 19.9506C38.6086 21.5097 40.5904 22.5779 42.75 23.0231V24.9769C40.5904 25.4221 38.6086 26.4903 37.0494 28.0494C35.4903 29.6086 34.4221 31.5904 33.9769 33.75ZM42.75 18.3638C41.8025 18.0255 40.9419 17.481 40.2305 16.7695C39.519 16.0581 38.9745 15.1975 38.6362 14.25H42.75V18.3638ZM9.36375 14.25C9.02548 15.1975 8.48097 16.0581 7.76954 16.7695C7.05811 17.481 6.19754 18.0255 5.25 18.3638V14.25H9.36375ZM5.25 29.6362C6.19754 29.9745 7.05811 30.519 7.76954 31.2305C8.48097 31.9419 9.02548 32.8025 9.36375 33.75H5.25V29.6362ZM38.6362 33.75C38.9745 32.8025 39.519 31.9419 40.2305 31.2305C40.9419 30.519 41.8025 29.9745 42.75 29.6362V33.75H38.6362ZM24 16.5C22.5166 16.5 21.0666 16.9399 19.8332 17.764C18.5999 18.5881 17.6386 19.7594 17.0709 21.1299C16.5032 22.5003 16.3547 24.0083 16.6441 25.4632C16.9335 26.918 17.6478 28.2544 18.6967 29.3033C19.7456 30.3522 21.082 31.0665 22.5368 31.3559C23.9917 31.6453 25.4997 31.4968 26.8701 30.9291C28.2406 30.3614 29.4119 29.4001 30.236 28.1668C31.0601 26.9334 31.5 25.4834 31.5 24C31.5 22.0109 30.7098 20.1032 29.3033 18.6967C27.8968 17.2902 25.9891 16.5 24 16.5ZM24 27C23.4067 27 22.8266 26.8241 22.3333 26.4944C21.8399 26.1648 21.4554 25.6962 21.2284 25.1481C21.0013 24.5999 20.9419 23.9967 21.0576 23.4147C21.1734 22.8328 21.4591 22.2982 21.8787 21.8787C22.2982 21.4591 22.8328 21.1734 23.4147 21.0576C23.9967 20.9419 24.5999 21.0013 25.1481 21.2284C25.6962 21.4554 26.1648 21.8399 26.4944 22.3333C26.8241 22.8266 27 23.4067 27 24C27 24.7956 26.6839 25.5587 26.1213 26.1213C25.5587 26.6839 24.7956 27 24 27Z" fill="white"/>
</svg>
