<svg width="50" height="30" viewBox="0 0 50 30" fill="none" xmlns="http://www.w3.org/2000/svg">
<path d="M33.961 0.24707H27.25C26.625 0.24707 26.0235 0.477603 25.5625 0.892562L17.8828 7.80855C17.875 7.81623 17.8672 7.8316 17.8594 7.83928C16.5625 9.03805 16.586 10.9515 17.6953 12.1426C18.6875 13.2107 20.7735 13.495 22.0782 12.35C22.086 12.3424 22.1016 12.3424 22.1094 12.3347L28.3516 6.70967C28.8594 6.25629 29.6563 6.28703 30.1172 6.78652C30.586 7.28601 30.5469 8.06213 30.0391 8.5232L28 10.3598L39.375 19.4428C39.6016 19.6272 39.8047 19.827 39.9922 20.0345V5.1651L35.7266 0.969406C35.2657 0.508341 34.625 0.24707 33.961 0.24707ZM42.5 5.18047V22.3859C42.5 23.746 43.6172 24.8449 45 24.8449H50V5.18047H42.5ZM46.25 22.3859C45.5625 22.3859 45 21.8326 45 21.1564C45 20.4802 45.5625 19.9269 46.25 19.9269C46.9375 19.9269 47.5 20.4802 47.5 21.1564C47.5 21.8326 46.9375 22.3859 46.25 22.3859ZM3.05176e-05 24.8372H5.00003C6.38284 24.8372 7.50003 23.7384 7.50003 22.3782V5.18047H3.05176e-05V24.8372ZM3.75003 19.9269C4.43753 19.9269 5.00003 20.4802 5.00003 21.1564C5.00003 21.8326 4.43753 22.3859 3.75003 22.3859C3.06253 22.3859 2.50003 21.8326 2.50003 21.1564C2.50003 20.4725 3.06253 19.9269 3.75003 19.9269ZM37.8047 21.3562L26.1407 12.0427L23.7969 14.1559C21.4766 16.2384 17.9219 16.0386 15.8516 13.8178C13.75 11.5585 13.9141 8.06213 16.1953 6.00271L22.586 0.24707H16.0391C15.375 0.24707 14.7422 0.508341 14.2735 0.969406L10 5.1651V22.3705H11.4297L18.5 28.6641C20.6407 30.3777 23.7891 30.055 25.5313 27.9494L25.5469 27.9341L26.9453 29.1251C28.1875 30.1241 30.0235 29.932 31.0313 28.7102L33.4844 25.744L33.9063 26.0821C34.9766 26.9351 36.5547 26.7814 37.4219 25.7209L38.1641 24.8219C39.0391 23.7614 38.875 22.2168 37.8047 21.3562Z" fill="white"/>
</svg>
